HIERARCHY
ROOT root
{
	OFFSET 0.000000 0.000000 0.000000
	CHANNELS 6 Xposition Yposition Zposition Zrotation Yrotation Xrotation
	JOINT lhip
	{
		OFFSET 0.058581 -0.082280 -0.017664
		CHANNELS 3 Zrotation Yrotation Xrotation
		JOINT lknee
		{
			OFFSET 0.043451 -0.386469 0.008037
			CHANNELS 3 Zrotation Yrotation Xrotation
			JOINT lankle
			{
				OFFSET -0.014790 -0.426874 -0.037428
				CHANNELS 3 Zrotation Yrotation Xrotation
				JOINT ltoe
				{
					OFFSET 0.041054 -0.060286 0.122042
					CHANNELS 3 Zrotation Yrotation Xrotation
					End Site
					{
						OFFSET 0.000000 0.000000 0.000000
					}
				}
			}
		}
	}
	JOINT rhip
	{
		OFFSET -0.060310 -0.090513 -0.013543
		CHANNELS 3 Zrotation Yrotation Xrotation
		JOINT rknee
		{
			OFFSET -0.043257 -0.383688 -0.004843
			CHANNELS 3 Zrotation Yrotation Xrotation
			JOINT rankle
			{
				OFFSET 0.019056 -0.420046 -0.034562
				CHANNELS 3 Zrotation Yrotation Xrotation
				JOINT rtoe
				{
					OFFSET -0.034840 -0.062106 0.130323
					CHANNELS 3 Zrotation Yrotation Xrotation
					End Site
					{
						OFFSET 0.000000 0.000000 0.000000
					}
				}
			}
		}
	}
	JOINT lowerback
	{
		OFFSET 0.004439 0.124404 -0.038385
		CHANNELS 3 Zrotation Yrotation Xrotation
		JOINT upperback
		{
			OFFSET 0.004488 0.137956 0.026820
			CHANNELS 3 Zrotation Yrotation Xrotation
			JOINT chest
			{
				OFFSET -0.002265 0.056032 0.002855
				CHANNELS 3 Zrotation Yrotation Xrotation
				JOINT lowerneck
				{
					OFFSET -0.013390 0.211636 -0.033468
					CHANNELS 3 Zrotation Yrotation Xrotation
					JOINT upperneck
					{
						OFFSET 0.010113 0.088937 0.050410
						CHANNELS 3 Zrotation Yrotation Xrotation
						End Site
						{
							OFFSET 0.000000 0.000000 0.000000
						}
					}
				}
				JOINT lclavicle
				{
					OFFSET 0.071702 0.114000 -0.018898
					CHANNELS 3 Zrotation Yrotation Xrotation
					JOINT lshoulder
					{
						OFFSET 0.122921 0.045205 -0.019046
						CHANNELS 3 Zrotation Yrotation Xrotation
						JOINT lelbow
						{
							OFFSET 0.255332 -0.015649 -0.022946
							CHANNELS 3 Zrotation Yrotation Xrotation
							JOINT lwrist
							{
								OFFSET 0.265709 0.012698 -0.007375
								CHANNELS 3 Zrotation Yrotation Xrotation
								End Site
								{
									OFFSET 0.000000 0.000000 0.000000
								}
							}
						}
					}
				}
				JOINT rclavicle
				{
					OFFSET -0.082954 0.112472 -0.023707
					CHANNELS 3 Zrotation Yrotation Xrotation
					JOINT rshoulder
					{
						OFFSET -0.113228 0.046853 -0.008472
						CHANNELS 3 Zrotation Yrotation Xrotation
						JOINT relbow
						{
							OFFSET -0.260127 -0.014369 -0.031269
							CHANNELS 3 Zrotation Yrotation Xrotation
							JOINT rwrist
							{
								OFFSET -0.269108 0.006794 -0.006027
								CHANNELS 3 Zrotation Yrotation Xrotation
								End Site
								{
									OFFSET 0.000000 0.000000 0.000000
								}
							}
						}
					}
				}
			}
		}
	}
}
MOTION
Frames: 8
Frame Time: 0.033333
-0.000950 -0.209789 1.579498 -179.132334 1.403579 88.924594 5.769699 1.345496 7.252390 -2.428051 -3.502199 -5.001776 -1.701399 9.685167 -9.426850 0.000000 -0.000000 0.000000 -4.025454 -2.661064 0.756163 0.888591 -2.079202 3.854605 5.427873 -3.838384 -6.629290 0.000000 -0.000000 0.000000 -0.683201 0.190048 3.671316 0.763351 -0.359719 2.564948 1.125183 -1.492001 -0.372032 3.224410 3.163131 -0.658162 2.007852 1.883821 15.039320 -28.598099 10.929324 3.193514 -55.294834 -1.218543 7.114631 10.285729 -36.446714 -1.122001 6.406571 -24.507037 -18.259641 29.468571 -3.272820 2.384433 57.665138 4.556176 11.965002 -12.297106 23.730360 -5.496185 -1.652254 12.919218 -7.018647 
-0.000708 -0.209323 1.579290 -179.105958 1.354143 89.005675 5.748962 1.247603 7.232642 -2.506337 -3.527182 -5.017362 -1.492213 9.713293 -9.418530 0.000000 -0.000000 0.000000 -4.101116 -2.453832 0.735188 0.899506 -2.039843 3.926145 5.790407 -3.969246 -6.751897 0.000000 -0.000000 0.000000 -0.795838 0.213911 3.487577 0.717072 -0.307655 2.680226 1.163946 -1.418844 -0.252672 3.319506 3.485679 -0.840709 2.001463 1.886144 15.242835 -28.170483 10.920242 3.291523 -55.774104 -1.297921 7.109305 10.418960 -36.300262 -1.013116 5.959784 -24.508189 -18.221152 29.113946 -3.107521 2.309172 58.321800 4.291094 12.220679 -12.650870 23.834757 -5.247409 -1.079124 13.103007 -7.641082 
-0.000543 -0.209206 1.579214 -179.217574 1.333454 89.109420 5.725051 1.279756 7.147033 -2.545754 -3.487095 -5.053421 -1.351815 9.836320 -9.453569 0.000000 -0.000000 0.000000 -4.206856 -2.334913 0.240074 1.032883 -1.933811 4.628541 6.068234 -3.938683 -6.941112 0.000000 -0.000000 0.000000 -0.871030 0.231165 3.426231 0.738032 -0.207170 2.759492 1.171956 -1.393177 -0.274802 3.441755 3.536405 -1.103707 1.945098 1.838878 15.595903 -28.081285 11.008540 3.220644 -55.852472 -1.204149 7.173333 10.467514 -36.142817 -0.962148 6.020192 -24.417414 -18.266154 29.209243 -3.104944 2.383914 58.268631 4.373066 12.338373 -12.562841 23.670407 -5.063963 -1.197353 13.077789 -7.472770 
-0.000650 -0.208399 1.579149 -179.015933 1.351445 89.181075 5.747152 1.239234 7.056130 -2.573213 -3.544723 -4.983977 -1.331566 9.799349 -9.457385 0.000000 -0.000000 0.000000 -4.237896 -2.375550 0.167872 1.094077 -1.888243 4.778141 6.076890 -3.981388 -7.126663 0.000000 -0.000000 0.000000 -0.895628 0.253641 3.250902 0.770408 -0.279958 2.872213 1.200294 -1.462513 -0.273249 3.445455 3.655277 -0.983841 1.937549 1.984747 15.543247 -28.071015 11.055216 3.201981 -55.926289 -1.116552 7.211584 10.462150 -36.019577 -0.828479 6.140252 -24.393341 -18.326577 29.183785 -3.177879 2.391420 58.323641 4.305525 12.306154 -12.567036 23.562876 -5.069923 -1.648294 12.897329 -7.465105 
-0.000659 -0.208405 1.579148 -179.017779 1.350056 89.182518 5.743847 1.237869 7.052812 -2.573580 -3.543845 -4.981085 -1.327284 9.803027 -9.460826 0.000000 -0.000000 0.000000 -4.239813 -2.370670 0.155141 1.092676 -1.889165 4.798201 6.079224 -3.982578 -7.132199 0.000000 -0.000000 0.000000 -0.896321 0.252191 3.255850 0.769615 -0.277280 2.871631 1.200072 -1.461350 -0.274461 3.443677 3.657190 -0.989418 1.935778 1.985917 15.546411 -28.068822 11.055793 3.199345 -55.929567 -1.112688 7.213880 10.464581 -36.017790 -0.828995 6.136478 -24.392923 -18.327886 29.182129 -3.176895 2.391611 58.325008 4.303373 12.307929 -12.565763 23.561063 -5.068831 -1.643771 12.896689 -7.467918 
-0.002918 -0.206887 1.579264 -178.876810 1.298838 89.503931 5.371605 1.136162 6.548592 -2.468202 -3.478258 -4.653761 -0.970718 10.100214 -9.643307 0.000000 -0.000000 0.000000 -4.405010 -2.245124 -0.859690 0.961267 -1.804481 6.118066 6.279783 -4.161879 -7.722667 0.000000 -0.000000 0.000000 -1.329333 0.457247 3.042920 1.133545 -0.318489 3.065525 1.535809 -1.249095 -0.374180 3.466108 3.526982 -0.439528 1.963912 1.685529 15.121986 -27.645432 11.293802 3.151590 -57.400246 -1.523576 7.274426 10.648088 -34.518943 -0.931738 5.136227 -24.830793 -17.536769 28.717602 -3.366297 2.231070 58.578455 3.924811 12.259136 -12.837073 22.796417 -5.340975 -1.083740 12.911746 -7.027085 
-0.003627 -0.206813 1.578991 -178.888227 1.156809 89.436186 5.198232 1.097206 6.577260 -2.556284 -3.412845 -4.582738 -0.842787 10.082084 -9.708050 0.000000 -0.000000 0.000000 -4.633269 -2.229548 -0.894748 0.990272 -1.911994 6.337460 6.160018 -3.983928 -7.898196 0.000000 -0.000000 0.000000 -1.008657 0.349854 3.634400 0.787961 -0.292425 2.835599 1.119674 -1.566923 -0.430956 3.609314 3.709318 -1.161697 2.034337 1.943437 15.346369 -27.941766 11.342178 2.515661 -56.672140 -0.499227 7.364290 10.856700 -35.387425 -1.029786 4.968468 -24.642541 -17.905982 29.063084 -3.274238 2.204561 58.616265 3.953949 12.360776 -12.821600 22.950320 -5.028786 -0.261719 12.730626 -7.082828 
-0.003724 -0.206755 1.578977 -178.884175 1.156485 89.438628 5.194594 1.095889 6.573259 -2.559215 -3.413413 -4.577758 -0.837658 10.081356 -9.709719 0.000000 -0.000000 0.000000 -4.635888 -2.230080 -0.894673 0.987687 -1.912272 6.338329 6.159526 -3.985131 -7.899547 0.000000 -0.000000 0.000000 -1.009182 0.350936 3.637668 0.788045 -0.292683 2.835506 1.121511 -1.566771 -0.430956 3.609573 3.700295 -1.159448 2.037971 1.939858 15.345314 -27.942116 11.343051 2.520870 -56.675826 -0.502777 7.364302 10.855154 -35.387401 -1.025084 4.965400 -24.640968 -17.907803 29.057800 -3.276844 2.205058 58.618740 3.949154 12.358824 -12.824064 22.942834 -5.026030 -0.265493 12.732182 -7.087756 
